<?xml version="1.0"?><svg xmlns="http://www.w3.org/2000/svg" width="1026.6667" height="307.6531681499649" viewBox="0 878.7495318500352 1026.6667 307.6531681499649">
<defs>
<linearGradient id="mgrad5" gradientUnits="userSpaceOnUse" x1="432.79998918" y1="1025.933307285" x2="127.73333014" y2="1025.933307285"><stop offset="0" stop-color="#ffffff"></stop><stop offset="1" stop-color="#000000"></stop></linearGradient>
<linearGradient id="mgrad6" gradientUnits="userSpaceOnUse" x1="470.6666549" y1="976.999975175" x2="165.59999586" y2="976.999975175"><stop offset="0" stop-color="#ffffff"></stop><stop offset="1" stop-color="#000000"></stop></linearGradient>
<linearGradient id="mgrad7" gradientUnits="userSpaceOnUse" x1="497.59998756" y1="944.999975975" x2="192.53332852" y2="944.999975975"><stop offset="0" stop-color="#ffffff"></stop><stop offset="1" stop-color="#000000"></stop></linearGradient>
<linearGradient id="mgrad8" gradientUnits="userSpaceOnUse" x1="571.59998571" y1="903.3333103499999" x2="266.53332667" y2="903.3333103499999"><stop offset="0" stop-color="#ffffff"></stop><stop offset="1" stop-color="#000000"></stop></linearGradient>
<mask id="mask5" maskUnits="userSpaceOnUse" x="117.73333014" y="1013.33330735" width="325.06665904" height="25.199999870000056"><rect x="127.73333014" y="1023.33330735" width="305.06665904" height="5.199999870000056" fill="url(#mgrad5)"></rect></mask>
<mask id="mask6" maskUnits="userSpaceOnUse" x="155.59999586" y="964.39997524" width="325.06665904" height="25.199999870000056"><rect x="165.59999586" y="974.39997524" width="305.06665904" height="5.199999870000056" fill="url(#mgrad6)"></rect></mask>
<mask id="mask7" maskUnits="userSpaceOnUse" x="182.53332852" y="932.39997604" width="325.06665904" height="25.199999870000056"><rect x="192.53332852" y="942.39997604" width="305.06665904" height="5.199999870000056" fill="url(#mgrad7)"></rect></mask>
<mask id="mask8" maskUnits="userSpaceOnUse" x="256.53332667" y="890.79997708" width="325.06665904000005" height="25.06666654000003"><rect x="266.53332667" y="900.79997708" width="305.06665904000005" height="5.066666540000028" fill="url(#mgrad8)"></rect></mask>
</defs>
<path id="path2061" d="m 4777.54,3005.58 c 14.07,57.08 10.58,102.74 -11.9,135.23 -22.48,32.49 -56.11,43.03 -102.66,31.62 -47.42,-11.42 -92.35,-40.4 -134.46,-88.7 -42.71,-47.41 -71.24,-100.1 -85.31,-157.18 -14.96,-57.08 -11.19,-101.86 11.28,-134.35 22.48,-32.49 56.72,-43.91 104.15,-32.49 46.54,11.42 90.6,40.39 132.43,87.81 42.98,48.3 71.51,100.98 86.47,158.06" style="fill:#ffffff;fill-opacity:1;fill-rule:nonzero;stroke:none" transform="matrix(0.13333333,0,0,-0.13333333,0,1317.3333)"></path>
<path id="path2062" d="m 5066.2,2744.98 c -14.71,35.96 -36.82,35.96 -63.86,0 -20.62,-42.98 -52.6,-75.03 -95.2,-97.7 -45.05,-22.67 -94.1,-34.39 -148.13,-34.39 -25.79,0 -49.87,1.56 -72,5.47 -35.9,7.03 -88.3,20.32 -154.49,40.64 -123.76,36.74 -221.43,62.54 -294.46,76.61 -35.9,7.03 -75.46,10.16 -115.99,10.16 -79.82,0 -153.38,-19.54 -220.69,-58.63 -67.06,-38.3 -117.06,-96.92 -147.52,-175.86 12.97,-33.61 35.08,-33.61 66.31,0 27.72,46.11 61.41,79.72 101.82,99.27 40.64,20.32 86.76,30.48 138.33,30.48 50.36,0 125.6,-14.85 227.22,-43.77 140.73,-41.43 233.97,-65.66 276.76,-74.26 42.78,-8.59 83.33,-12.5 123.86,-12.5 83.5,0 160.75,19.54 230.75,59.4 70.01,39.86 119.76,97.71 147.29,175.08" style="fill:#ffffff;fill-opacity:1;fill-rule:nonzero;stroke:none" transform="matrix(0.13333333,0,0,-0.13333333,0,1317.3333)"></path>
<path id="path2063" d="m 5072.84,1904.41 c 28.35,41.6 20.61,52.78 -22.34,32.29 -47.25,-30.43 -88.29,-44.71 -124.3,-44.71 -36.87,1.24 -64.95,14.9 -83.85,42.22 -9.03,13.04 -15.99,26.7 -20.09,41.6 -6.01,24.84 -11.96,63.96 -16.19,116.74 -9.08,97.49 -19.22,171.38 -31.67,221.67 -6.01,24.84 -16.93,47.81 -31.11,68.3 -27.92,40.36 -71.86,58.99 -131.8,55.89 -59.13,-2.49 -131.22,-32.91 -215.41,-92.53 -26.77,-38.49 -19.03,-49.67 23.2,-33.52 52.65,29.8 95.74,44.7 128.07,42.84 33.15,-1.24 58.74,-14.9 76.79,-40.98 17.61,-25.46 30.1,-77.62 38.71,-156.47 10.65,-110.53 20.7,-180.7 27.66,-210.5 6.96,-29.8 17.51,-54.02 31.68,-74.51 29.22,-42.22 74.44,-62.72 136.06,-60.23 61.61,2.48 132.89,32.29 214.59,91.9" style="fill:#ffffff;fill-opacity:1;fill-rule:nonzero;stroke:none" transform="matrix(0.13333333,0,0,-0.13333333,0,1317.3333)"></path>
<path id="path2064" d="m 3336.31,1849.2 c 21.48,-31.51 37.96,-26.07 47.64,15.71 2.83,47.08 17.33,86.26 42.49,118.89 26.99,33.23 60.15,56.75 100.46,70.05 19.24,6.35 37.66,10.74 55.31,12.37 28.83,1.96 71.8,1.87 127.11,-1.7 103.06,-5.45 183.44,-6.63 242.03,-2.4 28.83,1.96 59.26,8.63 89.49,18.61 59.55,19.64 108.72,56.83 147.52,111.57 38.84,53.93 59.02,123.5 58.7,208.14 -19.49,29.65 -35.99,24.21 -49.47,-16.31 -7.21,-51.89 -22.53,-93.02 -46.97,-122.05 -24.39,-29.86 -55.82,-51.13 -94.3,-63.82 -37.56,-12.39 -98.03,-16.39 -182.27,-13.13 -117.09,5.85 -193.71,6.58 -228.14,4.46 -34.43,-2.13 -65.82,-8.29 -96.05,-18.26 -62.3,-20.54 -114.22,-58.65 -154.8,-114.82 -40.58,-56.17 -60.81,-124.93 -58.75,-207.31" style="fill:#ffffff;fill-opacity:1;fill-rule:nonzero;stroke:none" transform="matrix(0.13333333,0,0,-0.13333333,0,1317.3333)"></path>
<rect x="127.73333014" y="1023.33330735" width="305.06665904" height="5.199999870000056" fill="#69BE28" mask="url(#mask5)"></rect>
<rect x="165.59999586" y="974.39997524" width="305.06665904" height="5.199999870000056" fill="#ffffff" mask="url(#mask6)"></rect>
<rect x="192.53332852" y="942.39997604" width="305.06665904" height="5.199999870000056" fill="#69BE28" mask="url(#mask7)"></rect>
<rect x="266.53332667" y="900.79997708" width="305.06665904000005" height="5.066666540000028" fill="#ffffff" mask="url(#mask8)"></rect>
<text id="text2064" xml:space="preserve" transform="matrix(1.3333333,0,0,1.3333333,149.96933,1171.4027)"><tspan id="tspan2064" style="font-style:italic;font-variant:normal;font-weight:700;font-size:115.244px;font-family:Arial;writing-mode:lr-tb;fill:#ffffff;fill-opacity:1;fill-rule:nonzero;stroke:none" x="0" dx="0 -0.03836669 -0.019091779 0.018969741 -0.01894531 -0.057763752 -0.01933598 -0.01894531" y="0">PureGeek</tspan></text>
</svg>