<?xml version="1.0" encoding="UTF-8"?><svg id="Layer_1" xmlns="http://www.w3.org/2000/svg" xmlns:xlink="http://www.w3.org/1999/xlink" viewBox="0 0 1405.984 621.679"><defs><style>.cls-1{stroke-width:5px;}.cls-1,.cls-2,.cls-3,.cls-4,.cls-5,.cls-6,.cls-7,.cls-8,.cls-9,.cls-10,.cls-11,.cls-12,.cls-13,.cls-14,.cls-15,.cls-16{stroke:#000;}.cls-1,.cls-2,.cls-3,.cls-4,.cls-5,.cls-6,.cls-7,.cls-9,.cls-10,.cls-17,.cls-11,.cls-12,.cls-13,.cls-14,.cls-16{stroke-linecap:round;stroke-linejoin:round;}.cls-1,.cls-18,.cls-6,.cls-9,.cls-17,.cls-13,.cls-14{fill:none;}.cls-2{fill:url(#New_Pattern_Swatch_5);}.cls-2,.cls-3,.cls-4,.cls-5,.cls-7,.cls-8,.cls-13{stroke-width:3px;}.cls-18,.cls-19,.cls-20,.cls-21,.cls-22,.cls-23,.cls-24,.cls-25,.cls-26,.cls-27{stroke-width:0px;}.cls-3{fill:url(#New_Pattern_Swatch_2-4);}.cls-4{fill:url(#New_Pattern_Swatch_2-2);}.cls-5{fill:url(#New_Pattern_Swatch_2-3);}.cls-19{fill:url(#radial-gradient);}.cls-6,.cls-11{stroke-width:4px;}.cls-7,.cls-21{fill:#a4adb0;}.cls-8,.cls-23,.cls-11{fill:#6fff0e;}.cls-8,.cls-15,.cls-28{stroke-miterlimit:10;}.cls-20,.cls-16{fill:#fcc49a;}.cls-9,.cls-10,.cls-12,.cls-16{stroke-width:8px;}.cls-22{fill:#000;}.cls-10,.cls-26{fill:#024;}.cls-17{stroke-width:4.031px;}.cls-17,.cls-28{stroke:#fff;}.cls-12{fill:url(#New_Pattern_Swatch_2);}.cls-24{fill:#6aff0b;}.cls-14,.cls-15{stroke-width:6px;}.cls-15{fill:#fad065;}.cls-25{fill:#ccc;}.cls-28{fill:#fff;}.cls-27{fill:#16e9f4;opacity:.46;}</style><pattern id="New_Pattern_Swatch_2" x="0" y="0" width="84.602" height="74.504" patternTransform="translate(-23.335 -16.71)" patternUnits="userSpaceOnUse" viewBox="0 0 84.602 74.504"><rect class="cls-18" x="0" width="84.602" height="74.504"/><rect class="cls-21" x="0" width="84.602" height="74.504"/></pattern><pattern id="New_Pattern_Swatch_2-2" patternTransform="translate(-63.335 -29.686)" xlink:href="#New_Pattern_Swatch_2"/><pattern id="New_Pattern_Swatch_5" x="0" y="0" width="84.602" height="74.504" patternTransform="translate(-23.335 -16.71)" patternUnits="userSpaceOnUse" viewBox="0 0 84.602 74.504"><rect class="cls-18" x="0" width="84.602" height="74.504"/><rect class="cls-24" x="0" width="84.602" height="74.504"/></pattern><pattern id="New_Pattern_Swatch_2-3" patternTransform="translate(-63.335 -29.686)" xlink:href="#New_Pattern_Swatch_2"/><radialGradient id="radial-gradient" cx="-2140.611" cy="6859.744" fx="-2140.611" fy="6859.744" r="32.451" gradientTransform="translate(274.315 1426.682) rotate(26.016) scale(.2 -.2)" gradientUnits="userSpaceOnUse"><stop offset="0" stop-color="#1ffdee"/><stop offset="1" stop-color="#0ac1fd"/></radialGradient><pattern id="New_Pattern_Swatch_2-4" patternTransform="translate(-63.335 -29.686)" xlink:href="#New_Pattern_Swatch_2"/></defs><circle class="cls-27" cx="331.403" cy="224.067" r="142.787"/><path class="cls-26" d="M530.638,155.145c-17.58,9.03-28.51,7.61-28.51,7.61l-97.43,139.73-6.65-55.14,88.87-96s-9.98-40.87,3.33-48.95c5.18-3.15,11.23-.16,16.46,4.88,7.58-6.7,23.7-19.25,31.54-12.48,8.61,7.44-11.87,20.37-22.82,23.85.14.25.28.49.41.73,8.12-4.04,15.34-7.69,15.34-7.69,0,0,6.59-2.87,11.82,4.14,5.22,6.99-4.75,15.97-11.79,17.04,3.16-.2,6.26-.03,8.94.42,8.55,1.43,8.08,12.83-9.51,21.86Z"/><path class="cls-26" d="M354.238,340.775l4.36,5.42s-7.13,32.32-43.24,62.73c-36.12,30.42-114.54,92.2-130.7,105.51-16.16,13.31-22.81,37.54-24.71,60.35-1.9,22.82-2.38,42.88-24.62,40.04-2.15,2.32-5.51,3.47-8.89,2.52-3.6-1.01-7.37-3.49-10.21-8.81-7.61-14.26-6.66-46.1-4.28-67.01,2.38-20.91,15.21-47.05,27.09-32.79,0,0,55.13-85.55,73.66-139.25.19-.56.39-1.11.58-1.66-16.71,7.87-35.65,20.31-51.01,39.81-.89,1.13-1.33,2.54-1.27,3.97.252,5.763-5.908,17.757-6.792,25.739-1.11,9.99-1.42,20.12-9.98,20.12-7.47,0,1.902-13.469,2.702-17.769.02-.14-.17-.2-.23-.07-1.19,2.7-4.62,11.13-5.92,21.26-1.58,12.36-6.02,18.38-8.55,14.58-2.3-3.46,2.13-17.56,2.96-28.6.02-.33-.46-.4-.53-.08-1.34,5.95-4.53,18.22-8.14,18.22-4.38,0-1.14-15.04.88-23.71.03-.14-.18-.21-.23-.07-1.41,3.76-4.72,11.59-7.62,11.11-3.8-.63-4.43-15.84,4.12-28.52,8.56-12.67,14.26-21.22,29.79-44.04,14.57-21.41,68.77-82.17,106.8-76.97,10.65-7.71,20.47-11.88,27.06-13.16l3.22,1.42,43.35,17.79,20.35,31.92Z"/><path class="cls-23" d="M188.198,489.825c-16.34,15.4-31.45,31.32-37.75,42.67-12.7,22.84-13.21,59.8-12.75,76.03.07,2.47-.85,4.68-2.37,6.3-2.15,2.32-5.51,3.47-8.89,2.52-3.6-1.01-7.37-3.49-10.21-8.81-7.61-14.26-6.66-46.1-4.28-67.01,2.38-20.91,15.21-47.05,27.09-32.79,0,0,7.4-11.49,17.7-28.69l-2.49,4.19s18.96,4.87,33.95,5.59Z"/><path class="cls-23" d="M207.838,495.795c-10.68,8.53-19.01,15.2-23.18,18.64-16.16,13.31-22.81,37.54-24.71,60.35-1.9,22.82-2.38,42.88-24.62,40.04,1.52-1.62,2.44-3.83,2.37-6.3-.46-16.23.05-53.19,12.75-76.03,6.3-11.35,21.41-27.27,37.75-42.67,1.72.08,3.38.11,4.96.07,0,0,3.56,3.89,14.68,5.9Z"/><path class="cls-9" d="M530.638,155.145c-17.58,9.03-28.51,7.61-28.51,7.61l-97.43,139.73-6.65-55.14,88.87-96s-9.98-40.87,3.33-48.95c5.18-3.15,11.23-.16,16.46,4.88,7.58-6.7,23.7-19.25,31.54-12.48,8.61,7.44-11.87,20.37-22.82,23.85.14.25.28.49.41.73,8.12-4.04,15.34-7.69,15.34-7.69,0,0,6.59-2.87,11.82,4.14,5.22,6.99-4.75,15.97-11.79,17.04,3.16-.2,6.26-.03,8.94.42,8.55,1.43,8.08,12.83-9.51,21.86Z"/><path class="cls-12" d="M110.233,364.844s5.993-16.272,21.676-50.014c15.683-33.743,39.674-49.021,57.743-33.047,17.025,15.052-1.272,10.196,31.604,15.463,32.876,5.267,36.594,5.237,36.594,5.237l-7.762,20.35-38.873-1.909s-15.249-11.321-30.168-1.816c-14.919,9.505-37.347,36.655-59.208,57.565l-11.604-11.828Z"/><path class="cls-9" d="M358.598,346.195s-7.13,32.32-43.24,62.73c-36.12,30.42-114.54,92.2-130.7,105.51-16.16,13.31-22.81,37.54-24.71,60.35-1.9,22.82-2.38,42.88-24.62,40.04-2.15,2.32-5.51,3.47-8.89,2.52-3.6-1.01-7.37-3.49-10.21-8.81-7.61-14.26-6.66-46.1-4.28-67.01,2.38-20.91,15.21-47.05,27.09-32.79,0,0,55.13-85.55,73.66-139.25.25-.72.5-1.43.75-2.13,11.48-31.82,30.16-52.52,46.81-64.55,10.65-7.71,20.47-11.88,27.06-13.16l3.22,1.42,43.35,17.79,20.35,31.92,4.36,5.42Z"/><path class="cls-4" d="M214.993,367.036s-.062,12.004,24.997,29.588c0,0,75.431-62.511,21.661-94.143,0,0,5.93-5.407,12.941-8.332,0,0,48.523,36.423-22.879,106.643,0,0,21.186,10.987,44.948,10.987,0,0,36.594-23.933,54.099-71.055l7.838,3.592s-6.183,42.929-57.03,76.068c0,0-59.719,11.436-91.795-42.925l5.221-10.423"/><path class="cls-22" d="M278.387,82.581c-1.322-4.271-2.572-8.566-3.861-12.849l-3.744-12.889c-1.264-4.291-2.442-8.611-3.666-12.915l-3.627-12.929c-.13-.462.14-.942.602-1.072.43-.121.876.105,1.04.509l5.067,12.435c1.673,4.15,3.394,8.285,5.028,12.449l4.95,12.475c1.609,4.172,3.257,8.332,4.833,12.516.682,1.81-.233,3.829-2.043,4.511-1.81.682-3.829-.233-4.511-2.043-.024-.063-.048-.136-.068-.199Z"/><path class="cls-22" d="M269.375,29.26c-.943-2.75-3.936-4.215-6.686-3.273-2.75.942-4.215,3.936-3.273,6.686.942,2.75,3.936,4.215,6.686,3.273,2.75-.942,4.215-3.936,3.273-6.686Z"/><ellipse class="cls-13" cx="272.193" cy="49.543" rx="21.672" ry="4.509" transform="translate(-2.636 81.364) rotate(-16.92)"/><path class="cls-7" d="M216.1,486.085c-10.131-1.91-18.158-6.736-18.158-6.736-13.998.361-35.447-5.363-35.447-5.363l-5.543,9.715s21.449,5.724,35.447,5.363c0,0,3.248,3.681,13.379,5.591l10.322-8.57Z"/><path class="cls-1" d="M134.285,614.825c1.033-25.618,3.463-59.49,16.163-82.33,16.63-29.94,94.57-91.73,94.57-91.73"/><path class="cls-2" d="M143.699,352.211c-17.964-4.882-18.732-15.301-18.732-15.301l-3.129,9.587s2.59,7.88,15.286,12.75l6.576-7.035Z"/><path class="cls-10" d="M250.522,353.911s-56.075,6.795-92.259,52.729c-.886,1.125-1.333,2.538-1.263,3.969,1.561,32.022-6.748,48.618-10.082,49.28-7.324,1.454-4.795-16.899-3.995-21.194.026-.138-.166-.199-.223-.071-1.193,2.706-4.622,11.134-5.921,21.266-1.584,12.356-6.02,18.376-8.554,14.574-2.302-3.453,2.129-17.555,2.961-28.595.025-.332-.46-.404-.533-.079-1.336,5.948-4.53,18.219-8.13,18.219-4.386,0-1.149-15.042.871-23.713.033-.144-.173-.206-.225-.068-1.414,3.763-4.722,11.59-7.617,11.108-3.802-.634-4.436-15.842,4.119-28.515s14.257-21.228,29.782-44.04c15.525-22.812,76.039-90.297,114.059-75.089,19.83,7.932,16.554,31.946,7.816,57.513l-20.806-7.293Z"/><path class="cls-23" d="M129.943,474.594c-.354,0-.677-.373-.885-.686-1.184-1.776-.012-8.205,1.121-14.422.825-4.525,1.678-9.206,2.005-13.544.027-.357-.089-.698-.329-.957-.24-.259-.583-.407-.941-.407-.597,0-1.105.407-1.236.991-2.706,12.046-5.543,17.438-7.154,17.438-.178,0-.33-.043-.497-.254-1.456-1.833-.667-9.312,2.342-22.231.078-.334.002-.68-.21-.947-.21-.266-.54-.425-.881-.425-.468,0-.877.284-1.043.725-2.72,7.24-5.186,10.481-6.422,10.481h0c-.431-.064-.814-.521-1.12-1.232-1.839-4.28-.829-15.91,5.809-25.744,2.233-3.308,4.271-6.335,6.341-9.408,5.884-8.737,11.968-17.771,23.439-34.629,2.769-4.069,6.69-9.154,11.172-14.498.255,8.38,1.53,19.633,5.727,30.199-3.458,3.502-6.72,7.192-9.701,10.978-1.198,1.521-1.718,3.207-1.464,4.75,2.304,13.989-2.163,41.767-5.554,45.937-1.135,1.396-2.34,2.13-3.583,2.183l-.158.003c-.897,0-1.583-.322-2.159-1.017-2.527-3.041-1.932-12.135-.654-18.999.062-.327-.024-.663-.237-.919-.214-.258-.529-.405-.865-.405-.441,0-.841.262-1.02.668-1.372,3.113-4.703,11.445-5.997,21.541-1.344,10.481-4.471,14.832-5.846,14.832Z"/><path class="cls-5" d="M167.875,395.758s-6.876-9.757-6.263-32.269l8.978-10.328c-3.358,20.738,3.095,36.74,3.095,36.74l-5.811,5.857Z"/><path class="cls-16" d="M358.601,133.285c45.691,23.975,90.632,175.805,28.99,207.683-49.351,25.522-105.997-64.158-105.997-64.158-9.997,46.574-60.356-18.946-47.176-34.218,11.074-12.832,37.213,5.228,37.213,5.228l-23.762-60.832,33.725-58.304s59.929-4.36,77.007,4.601Z"/><path class="cls-22" d="M273.215,269.839c-.687.56-5.005-4.263-11.147-8.998-3.059-2.39-6.057-4.173-8.296-5.36-2.247-1.176-3.724-1.731-3.685-2.117.033-.408,1.811-.544,4.44.223,2.612.77,6.049,2.428,9.294,4.964,3.261,2.515,5.779,5.261,7.371,7.398,1.581,2.154,2.322,3.649,2.023,3.889Z"/><path class="cls-22" d="M336.024,266.099c.165.982-3.771,1.749-6.305,5.082-1.328,1.609-2.075,3.485-2.671,4.863-.562,1.398-.941,2.332-1.373,2.336-.427.009-.839-1.045-.788-2.775.087-1.693.62-4.185,2.391-6.366.836-1.111,1.928-1.926,2.951-2.533,1.058-.559,2.068-.913,2.941-1.032.855-.198,1.576-.099,2.062-.03.49.088.761.241.792.454Z"/><path class="cls-22" d="M396.658,269.06c.108.186-.681.858-2.209,1.917-1.515,1.082-3.826,2.456-6.766,4.019-2.957,1.527-6.57,3.198-10.755,4.662-4.19,1.429-8.955,2.673-14.098,3.209-5.139.487-10.149.285-14.546-.76-4.41-.975-8.173-2.678-11.04-4.501-2.881-1.822-4.878-3.75-6.088-5.2-1.212-1.458-1.65-2.445-1.474-2.565.34-.287,2.982,2.882,8.666,5.856,2.823,1.47,6.39,2.839,10.521,3.597,4.118.824,8.789.928,13.643.471,4.86-.506,9.433-1.607,13.525-2.839,4.088-1.266,7.695-2.683,10.711-3.926,3-1.279,5.435-2.337,7.116-3.085,1.693-.725,2.686-1.04,2.794-.854Z"/><path class="cls-22" d="M332.846,272.919s10.198,31.761,35.94,30.777c29.084-1.111,37.624-25.649,27.387-39.331,0,0-34.519,28.945-63.327,8.554Z"/><path class="cls-22" d="M371.684,300.242c-.982.102-1.999.173-3.021.211-14.896.57-24.256-11.697-28.879-20.054,6.501,2.619,13.572,3.552,21.085,2.775,15.506-1.603,28.928-10.108,34.415-14.049,2.356,4.878,2.406,10.775.066,16.119-3.658,8.354-12.284,13.82-23.666,14.997Z"/><path class="cls-20" d="M363.559,255.781c8.892,5.114,25.839,1.558,28.025-9.995.714-3.771-2.186-7.837-5.984-8.389-3.694-.538-6.845,1.923-10.457,2.19-3.465.256-6.938-.849-9.579-3.118-5.915-5.082-10.706-15.645-13.902-34.823"/><path class="cls-22" d="M351.663,201.645c.302-.05.824,1.346,1.561,3.886.755,2.534,1.746,6.215,3.205,10.642.75,2.203,1.587,4.608,2.681,7.075,1.089,2.462,2.372,5.036,4.058,7.425,1.706,2.348,3.747,4.684,6.323,5.79,1.3.582,2.741.923,4.213.975.368.015.738.009,1.107-.014.369-.025.681-.062,1.045-.133.709-.135,1.469-.368,2.287-.648,1.63-.546,3.491-1.32,5.717-1.466,1.098-.068,2.255.04,3.374.399,1.103.353,2.096.918,2.945,1.607,1.687,1.395,2.836,3.266,3.337,5.318.243,1.029.296,2.111.151,3.166-.063.561-.194.96-.301,1.417-.099.448-.279.873-.418,1.304-1.278,3.445-3.815,5.981-6.386,7.602-2.602,1.64-5.296,2.52-7.769,2.972-4.973.901-9.078.158-11.662-.816-2.611-1.005-3.719-2.143-3.573-2.365.165-.288,1.516.299,4.02.725,2.485.41,6.232.605,10.536-.557,2.135-.574,4.396-1.512,6.43-2.966,2.022-1.448,3.797-3.456,4.617-5.956.083-.318.212-.623.268-.953.061-.316.163-.683.168-.923.054-.533.018-1.095-.132-1.657-.306-1.12-1.014-2.225-1.972-2.982-.48-.373-1.013-.656-1.561-.822-.532-.163-1.14-.226-1.794-.18-1.305.079-2.813.646-4.586,1.263-.889.303-1.847.606-2.891.801-.511.1-1.083.166-1.598.194-.514.029-1.028.033-1.538.008-2.042-.09-4.03-.588-5.822-1.428-1.788-.811-3.408-2.086-4.635-3.354-1.249-1.298-2.321-2.669-3.233-4.067-1.826-2.798-3.073-5.646-4.085-8.328-1.013-2.686-1.708-5.242-2.291-7.577-1.12-4.681-1.659-8.515-1.907-11.175-.229-2.664-.184-4.156.108-4.205Z"/><ellipse class="cls-22" cx="333.333" cy="229.214" rx="7.711" ry="10.864" transform="translate(-39.834 73.021) rotate(-11.802)"/><path class="cls-22" d="M347.718,177.443s19.889-13.236,35.968,2.517c0,0-21.043-4.714-34.647,10.486l-1.321-13.003Z"/><path class="cls-22" d="M328.852,185.628s-30.195,5.66-28.585,31.259c0,0,10.187-19.007,30.583-19.368l-1.998-11.891Z"/><ellipse class="cls-22" cx="367.308" cy="212.77" rx="7.711" ry="10.864" transform="translate(-35.753 79.622) rotate(-11.802)"/><path class="cls-28" d="M385.671,283.487c6.478-2.616,6.335-7.978,5.595-11.248-14.481,11.717-31.814,12.573-42.622,11.601.703,3.207,2.736,7.245,8.583,6.889-1.638,1.271-1.683,4.155-1.327,6.704,5.602,2.71,12.018,4.165,18.862,2.981,7.038-1.217,12.735-4.395,16.88-9.16-.721-3.505-2.338-7.595-5.971-7.767Z"/><path class="cls-28" d="M376.019,300.993c-.37.076-.744.147-1.122.212-6.322,1.093-12.781.073-19.199-3.031-.23-.111-.4-.365-.441-.659-.358-2.564-.199-4.595.457-6-5.315-.422-7.237-5.344-7.835-8.071-.053-.245-.012-.498.112-.684.123-.187.315-.284.52-.268,12.732.962,24.829-.668,42.368-10.926.193-.113.396-.163.598-.059.202.102.358.315.416.571.677,2.995.931,8.15-4.057,11.209,2.088,1.117,3.603,3.771,4.437,7.823.057.276-.008.557-.168.744-4.101,4.715-9.51,7.785-16.088,9.14ZM356.481,296.875c6.072,2.857,12.175,3.782,18.146,2.749,6.689-1.145,12.167-4.073,16.288-8.672-.968-4.307-2.725-6.549-5.224-6.669-.317-.015-.594-.304-.658-.687-.065-.384.102-.749.396-.868,4.229-1.709,6.025-5.133,5.397-9.519-13.654,9.566-29.59,12.18-41.42,10.95,1.138,3.705,3.828,6.012,7.743,5.773.297-.018.578.215.685.564.108.35.012.726-.233.915-1.304,1.013-1.354,3.438-1.12,5.464Z"/><path class="cls-28" d="M357.228,290.741c2.474-.152,4.902-.507,7.317-.895,2.408-.424,4.808-.886,7.166-1.535,2.364-.617,4.712-1.318,7.025-2.155,2.326-.802,4.609-1.753,6.931-2.68-2.081,1.492-4.253,2.849-6.551,3.863-2.272,1.093-4.65,1.877-7.052,2.532-2.41.63-4.871,1.033-7.353,1.209-2.479.184-4.994.125-7.483-.34Z"/><path class="cls-22" d="M396.173,264.365s-34.519,28.945-63.327,8.554c0,0,10.198,31.761,35.94,30.777,29.084-1.111,37.624-25.649,27.387-39.331ZM395.35,285.245c-3.658,8.354-12.284,13.82-23.666,14.997-.982.102-1.999.173-3.021.211-14.896.57-24.256-11.697-28.879-20.054,6.501,2.619,13.572,3.552,21.085,2.775,15.506-1.603,28.928-10.108,34.415-14.049,2.356,4.878,2.406,10.775.066,16.119Z"/><g id="sonic_screwdriver_0_Layer0_0_FILL"><path class="cls-21" d="M499.425,83.813c-1.308-.09-2.641-.291-3.999-.603l19.936,85.456,5.103,13.768c6.742,7.046,11.749,5.842,15.019-3.613l-1.77-15.177-18.846-84.832c-.979.758-1.969,1.432-2.97,2.021-3.919,2.286-8.077,3.28-12.472,2.98M488.908,38.561l-.017.208,8.853,37.8-1.152,3.316c5.8,1.099,11.151-.042,16.052-3.423l-2.233-2.364-8.484-38.422c-3.911,1.841-8.25,2.803-13.018,2.885Z"/><path class="cls-22" d="M495.426,83.21c1.359.312,2.692.513,3.999.603,4.395.3,8.553-.693,12.472-2.98,1.001-.589,1.991-1.263,2.97-2.021l-2.224-2.351c-4.901,3.381-10.252,4.522-16.052,3.423l-1.166,3.325M480.435,12.209l-.588,4.284c7.096,1.289,13.788-.359,20.077-4.944l-2.214-3.548c-5.303,3.632-11.061,5.035-17.275,4.208Z"/><path class="cls-25" d="M484.966,38.451c1.351.107,2.666.143,3.942.11,4.768-.082,9.107-1.044,13.018-2.885,1.029-.49,2.026-1.04,2.992-1.652l-4.994-22.474c-6.288,4.585-12.981,6.233-20.077,4.944l5.118,21.958Z"/><path class="cls-19" d="M497.711,8.002c-.991-2.318-2.468-3.994-4.431-5.027-1.822-.951-3.733-1.206-5.732-.764-2.023.445-3.68,1.502-4.97,3.172-1.417,1.841-2.132,4.117-2.142,6.828,6.214.827,11.972-.576,17.275-4.208Z"/></g><path id="sonic_screwdriver_0_Layer0_0_1_STROKES" class="cls-6" d="M480.435,12.209c.011-2.711.725-4.987,2.142-6.828,1.29-1.67,2.947-2.727,4.97-3.172,1.999-.442,3.91-.187,5.732.764,1.963,1.033,3.44,2.709,4.431,5.027l2.214,3.548,4.994,22.474c-.966.612-1.963,1.162-2.992,1.652l8.484,38.422,2.233,2.364,2.224,2.351,18.846,84.832,1.77,15.177c-3.27,9.455-8.276,10.659-15.019,3.613l-5.103-13.768-19.936-85.456,1.166-3.325,1.152-3.316-8.853-37.8M488.908,38.561c-1.277.033-2.591-.003-3.942-.11l-5.118-21.958.588-4.284c6.214.827,11.972-.576,17.275-4.208M479.847,16.494c7.096,1.289,13.788-.359,20.077-4.944M488.908,38.561c4.768-.082,9.107-1.044,13.018-2.885M495.426,83.21c1.359.312,2.692.513,3.999.603,4.395.3,8.553-.693,12.472-2.98,1.001-.589,1.991-1.263,2.97-2.021M496.591,79.885c5.8,1.099,11.151-.042,16.052-3.423"/><path class="cls-11" d="M510.701,146.201l2.581,12.808s-5.482,3.165-11.185,2.532l-35.4,52.023-4.965-33.736,25.186-28.483s-9.977-40.871,3.33-48.95c13.307-8.079,30.419,20.362,26.617,24.164-2.928,2.928-14.314-6.266-19.393-10.646-.871-.751-2.201-.007-2.02,1.129.935,5.877,7.532,13.43,12.602,18.522"/><polygon class="cls-3" points="457.635 226.561 451.752 189.331 461.57 178.726 466.697 213.564 457.635 226.561"/><g id="Layer0_0_FILL"><path class="cls-8" d="M317.936,343.956l-33.457,25.283,15.884,5.624-7.61,21.493,33.275-25.666-15.601-5.524,7.51-21.21Z"/></g><circle class="cls-14" cx="331.403" cy="224.067" r="150.55"/><circle class="cls-17" cx="331.403" cy="224.067" r="146.09"/><path class="cls-22" d="M257.849,269.126c.141-.39,1.049-.393,2.323-.359,1.246.03,3.006-.009,3.609-.874.373-.413.607-1.148.741-1.882.135-.741.178-1.488.226-2.127.081-1.287.173-2.166.556-2.282.375-.117,1,.607,1.464,2.006.221.703.412,1.575.401,2.622-.029,1.023-.201,2.336-1.184,3.522-.485.579-1.13,1.007-1.771,1.257-.641.222-1.27.329-1.818.311-1.11-.013-1.989-.277-2.674-.563-1.364-.595-2.004-1.275-1.873-1.63Z"/><path class="cls-15" d="M375.134,114.804c2.632-3.529,4.887-7.108,6.655-10.714l-36.024,4.068,15.936-15.989-20.4,11.86,4.463-18.268-18.203,18.268-2.802-18.268s-74.614,13.782-89.346,86.02c0,0-3.507-13.275,3.033-29.656,0,0-12.946,7.259-12.47,24.666,0,0-13.797-.649-28.433,10.9,0,0,20.713,19.055,40.139,48.525,1.726,2.952,3.447,5.684,5.125,8.075,0,0,0,0,0,0h0c.976,1.39,1.938,2.669,2.879,3.804,0,0,11.29,1.096,22.783,8.913l.912,4.041c20.385-.536,14.01-51.994,11.575-67.771,16.002-5.964,65.55-27.047,94.178-68.474Z"/><path class="cls-22" d="M263.763,89.863l1.627-9.766c.593-3.558,3.091-6.505,6.504-7.672l15.786-5.397c2.954-1.01,6.213-.553,8.776,1.229l8.796,6.119s-13.55.737-41.49,15.486Z"/><path class="cls-6" d="M95.79,390.432c-7.87-2.72-14.99-2.09-17,1.91-1.9,3.79,1.36,9.46,7.58,14.04.77.57,1.59,1.12,2.45,1.65h.01c.92.57,1.89,1.11,2.9,1.62,1.07.54,2.14,1.01,3.2,1.42.99.39,1.97.72,2.93,1,7.25,2.15,13.6,1.35,15.48-2.39,1.65-3.3-.61-8.02-5.31-12.19"/><path class="cls-22" d="M110.88,385.528L0,552.459l105.833-170.176c2.191-3.334,7.185-.18,5.047,3.245h0Z"/><path class="cls-11" d="M518.038,122.467c.683-1.748,10.341-12.93,21.314-9.132,1.426.494,2.821,1.296,3.608,2.584,7.788,12.732-20.339,15.89-22.707,14.468,0,0-4.588-1.848-2.216-7.92Z"/><path class="cls-11" d="M531.186,92.283c2.763-.364,5.881.081,7.73,2.166,1.264,1.425,1.737,3.43,1.589,5.329s-.86,3.711-1.729,5.406c-1.688,3.29-6.041,6.296-9.104,8.367-4.863,3.288-18.68,3.99-18.967-3.793-.061-1.668.62-3.272,1.731-4.518,3.082-3.459,11.347-11.982,18.75-12.956Z"/><path class="cls-11" d="M525.286,145.881c-2.363-.158-16.312,1.837-18.445-2.33-3.183-6.22,7.519-10.144,11.66-11.152,5.605-1.364,12.575-2.561,18.223-1.555,2.298.409,4.452,1.54,5.863,3.399,4.241,5.586-.089,12.793-4.826,16.279,0,0-2.982,2.194-6.513,3.24-.255.075,2.504-7.315-5.963-7.881Z"/><path class="cls-26" d="M502.871,421.881c-6,0-10.601-1.669-13.801-5-3.199-3.331-4.8-7.931-4.8-13.8v-105.4c0-6.131,1.632-10.8,4.9-14,3.266-3.2,7.899-4.8,13.899-4.8h49.2c15.866,0,28.132,4.1,36.8,12.3,8.666,8.2,13,19.5,13,33.9s-4.334,25.7-13,33.9c-8.668,8.2-20.934,12.3-36.8,12.3h-31.2v31.8c0,5.869-1.568,10.469-4.699,13.8-3.135,3.331-7.635,5-13.5,5ZM521.071,343.081h24.601c7.065,0,12.399-1.5,16-4.5,3.6-3,5.399-7.5,5.399-13.5s-1.8-10.5-5.399-13.5c-3.601-3-8.935-4.5-16-4.5h-24.601v36Z"/><path class="cls-26" d="M653.87,422.281c-8.534,0-15.534-1.569-21-4.7-5.469-3.131-9.569-7.866-12.3-14.2-2.734-6.331-4.101-14.231-4.101-23.7v-42.2c0-5.731,1.531-10.166,4.601-13.3,3.065-3.131,7.465-4.7,13.199-4.7,5.601,0,9.966,1.569,13.101,4.7,3.131,3.135,4.7,7.569,4.7,13.3v43c0,4.8,1,8.4,3,10.8s5.131,3.6,9.399,3.6c4.8,0,8.766-1.731,11.9-5.2,3.131-3.465,4.7-8.065,4.7-13.8v-38.4c0-5.731,1.5-10.166,4.5-13.3,3-3.131,7.365-4.7,13.1-4.7s10.166,1.569,13.3,4.7c3.132,3.135,4.7,7.569,4.7,13.3v66.4c0,12-5.8,18-17.4,18-5.6,0-9.934-1.569-13-4.7-3.068-3.131-4.6-7.565-4.6-13.3v-11.8l3.2,9.8c-2.935,6.534-7.034,11.569-12.3,15.1-5.27,3.531-11.5,5.3-18.7,5.3Z"/><path class="cls-26" d="M755.469,421.881c-5.868,0-10.368-1.569-13.5-4.7-3.134-3.131-4.699-7.565-4.699-13.3v-66.4c0-5.731,1.5-10.166,4.5-13.3,3-3.131,7.3-4.7,12.899-4.7,5.466,0,9.7,1.569,12.7,4.7,3,3.135,4.5,7.569,4.5,13.3v8.2h-2c1.331-8,4.766-14.365,10.3-19.1,5.531-4.731,12.432-7.231,20.7-7.5,3.865-.131,6.766.869,8.7,3,1.931,2.134,2.966,6,3.1,11.6,0,4.8-1,8.569-3,11.3-2,2.734-5.734,4.434-11.2,5.1l-4.8.4c-6.935.668-12.068,2.634-15.399,5.9-3.335,3.269-5,8.1-5,14.5v33c0,5.734-1.5,10.169-4.5,13.3-3,3.131-7.435,4.7-13.301,4.7Z"/><path class="cls-26" d="M877.667,422.281c-12,0-22.369-2.134-31.1-6.4-8.734-4.266-15.435-10.266-20.101-18-4.669-7.731-7-16.8-7-27.2,0-10.131,2.231-19.065,6.7-26.8,4.466-7.731,10.6-13.8,18.4-18.2,7.8-4.4,16.699-6.6,26.699-6.6,7.332,0,14,1.2,20,3.6,6,2.4,11.101,5.834,15.301,10.3,4.199,4.469,7.431,9.834,9.699,16.1,2.266,6.269,3.4,13.334,3.4,21.2,0,2.535-.734,4.469-2.2,5.8-1.469,1.334-3.734,2-6.8,2h-61.4v-17h44.2l-3,2.6c0-4.931-.669-8.965-2-12.1-1.334-3.131-3.3-5.466-5.899-7-2.601-1.531-5.835-2.3-9.7-2.3-4.135,0-7.734.969-10.8,2.9-3.069,1.935-5.369,4.769-6.9,8.5-1.534,3.734-2.3,8.4-2.3,14v1.6c0,9.6,2.1,16.4,6.3,20.4s10.7,6,19.5,6c2.932,0,6.3-.331,10.1-1,3.801-.666,7.432-1.666,10.9-3,3.466-1.331,6.466-1.565,9-.7,2.531.869,4.5,2.3,5.9,4.3,1.399,2,2.199,4.369,2.399,7.1.2,2.734-.399,5.3-1.8,7.7-1.4,2.4-3.7,4.269-6.9,5.6-4.534,2.135-9.434,3.769-14.699,4.9-5.27,1.131-10.569,1.7-15.9,1.7Z"/><path class="cls-26" d="M1009.466,422.281c-16.134,0-29.834-3.031-41.1-9.1-11.269-6.065-19.869-14.5-25.8-25.3-5.935-10.8-8.9-23.4-8.9-37.8,0-11.2,1.8-21.332,5.4-30.4,3.6-9.065,8.73-16.766,15.399-23.1,6.666-6.332,14.831-11.266,24.5-14.8,9.666-3.531,20.632-5.3,32.9-5.3,6.665,0,13.466.668,20.399,2,6.932,1.334,13.801,3.734,20.601,7.2,3.2,1.6,5.466,3.834,6.8,6.7,1.331,2.869,1.8,5.9,1.4,9.1-.4,3.2-1.569,6.069-3.5,8.6-1.935,2.534-4.4,4.234-7.4,5.1-3,.869-6.435.435-10.3-1.3-4-1.866-8.3-3.3-12.9-4.3-4.6-1-9.5-1.5-14.7-1.5-9.068,0-16.6,1.6-22.6,4.8s-10.469,7.935-13.4,14.2c-2.934,6.269-4.399,13.934-4.399,23,0,13.6,3.365,23.869,10.1,30.8,6.731,6.935,16.632,10.4,29.7,10.4,4,0,8.331-.4,13-1.2,4.666-.8,9.466-2,14.4-3.6l-6.801,14v-34.2h-13.8c-4.669,0-8.234-1.131-10.7-3.4-2.469-2.266-3.699-5.4-3.699-9.4,0-4.266,1.23-7.5,3.699-9.7,2.466-2.2,6.031-3.3,10.7-3.3h29.4c4.8,0,8.399,1.2,10.8,3.6,2.4,2.4,3.6,6,3.6,10.8v44.4c0,4-.834,7.369-2.5,10.1-1.668,2.734-4.3,4.769-7.899,6.1-6.269,2.134-13.034,3.8-20.3,5-7.27,1.2-14.635,1.8-22.101,1.8Z"/><path class="cls-26" d="M1138.065,422.281c-12,0-22.369-2.134-31.1-6.4-8.734-4.266-15.435-10.266-20.101-18-4.669-7.731-7-16.8-7-27.2,0-10.131,2.231-19.065,6.7-26.8,4.466-7.731,10.6-13.8,18.4-18.2,7.8-4.4,16.699-6.6,26.699-6.6,7.332,0,14,1.2,20,3.6,6,2.4,11.101,5.834,15.301,10.3,4.199,4.469,7.431,9.834,9.699,16.1,2.266,6.269,3.4,13.334,3.4,21.2,0,2.535-.734,4.469-2.2,5.8-1.469,1.334-3.734,2-6.8,2h-61.4v-17h44.2l-3,2.6c0-4.931-.669-8.965-2-12.1-1.334-3.131-3.3-5.466-5.899-7-2.601-1.531-5.835-2.3-9.7-2.3-4.135,0-7.734.969-10.8,2.9-3.069,1.935-5.369,4.769-6.9,8.5-1.534,3.734-2.3,8.4-2.3,14v1.6c0,9.6,2.1,16.4,6.3,20.4s10.7,6,19.5,6c2.932,0,6.3-.331,10.1-1,3.801-.666,7.432-1.666,10.9-3,3.466-1.331,6.466-1.565,9-.7,2.531.869,4.5,2.3,5.9,4.3,1.399,2,2.199,4.369,2.399,7.1.2,2.734-.399,5.3-1.8,7.7-1.4,2.4-3.7,4.269-6.9,5.6-4.534,2.135-9.434,3.769-14.699,4.9-5.27,1.131-10.569,1.7-15.9,1.7Z"/><path class="cls-26" d="M1249.064,422.281c-12,0-22.369-2.134-31.1-6.4-8.734-4.266-15.435-10.266-20.101-18-4.669-7.731-7-16.8-7-27.2,0-10.131,2.231-19.065,6.7-26.8,4.466-7.731,10.6-13.8,18.4-18.2,7.8-4.4,16.699-6.6,26.699-6.6,7.332,0,14,1.2,20,3.6,6,2.4,11.101,5.834,15.301,10.3,4.199,4.469,7.431,9.834,9.699,16.1,2.266,6.269,3.4,13.334,3.4,21.2,0,2.535-.734,4.469-2.2,5.8-1.469,1.334-3.734,2-6.8,2h-61.4v-17h44.2l-3,2.6c0-4.931-.669-8.965-2-12.1-1.334-3.131-3.3-5.466-5.899-7-2.601-1.531-5.835-2.3-9.7-2.3-4.135,0-7.734.969-10.8,2.9-3.069,1.935-5.369,4.769-6.9,8.5-1.534,3.734-2.3,8.4-2.3,14v1.6c0,9.6,2.1,16.4,6.3,20.4s10.7,6,19.5,6c2.932,0,6.3-.331,10.1-1,3.801-.666,7.432-1.666,10.9-3,3.466-1.331,6.466-1.565,9-.7,2.531.869,4.5,2.3,5.9,4.3,1.399,2,2.199,4.369,2.399,7.1.2,2.734-.399,5.3-1.8,7.7-1.4,2.4-3.7,4.269-6.9,5.6-4.534,2.135-9.434,3.769-14.699,4.9-5.27,1.131-10.569,1.7-15.9,1.7Z"/><path class="cls-26" d="M1324.262,421.881c-5.869,0-10.3-1.569-13.3-4.7-3-3.131-4.5-7.565-4.5-13.3v-109c0-5.731,1.5-10.166,4.5-13.3,3-3.131,7.431-4.7,13.3-4.7,5.6,0,9.966,1.569,13.1,4.7,3.132,3.134,4.7,7.568,4.7,13.3v66h.4l24.399-29.4c3.331-4,6.432-7,9.3-9,2.866-2,6.766-3,11.7-3s8.731,1.234,11.4,3.7c2.665,2.469,4.065,5.5,4.2,9.1.131,3.6-1.27,7.269-4.2,11l-26.4,31.2v-12.6l29.4,37.2c2.931,3.734,4.131,7.369,3.6,10.9-.534,3.534-2.234,6.4-5.1,8.6-2.869,2.2-6.5,3.3-10.9,3.3-5.334,0-9.6-.969-12.8-2.9s-6.334-5.031-9.4-9.3l-25.199-30.8h-.4v25c0,12-5.935,18-17.8,18Z"/></svg>